<svg width="122" height="62" viewBox="0 0 122 62" fill="none" xmlns="http://www.w3.org/2000/svg">
<g clip-path="url(#clip0_6317_2761)">
<path d="M115.465 54.7263H116.479V57.128H117.185V54.7263H118.199V54.0938H115.467V54.7263H115.465ZM119.76 54.0938H118.7V57.128H119.354V54.8877L120.097 57.128H120.568L121.314 54.8659V57.128H121.998V54.0938H120.981L120.372 55.9444L119.76 54.0938Z" fill="white"/>
<path d="M0 59.9816H1.51345V56.6228H3.45729L5.3782 59.9816H7.01689L5.0166 56.4651C6.04497 56.1588 6.59884 55.4066 6.59884 54.2683C6.59884 52.7203 5.61633 51.901 3.86476 51.901H0L0 59.9816ZM3.76421 53.255C4.58973 53.255 5.04129 53.5741 5.04129 54.2683C5.04129 54.9625 4.58973 55.2924 3.76421 55.2924H1.51521V53.255H3.76421ZM10.5536 54.0743C8.89194 54.0743 7.83006 55.316 7.83006 57.1032C7.83006 58.8451 8.91487 60.1302 10.6664 60.1302C12.508 60.1302 13.1289 58.9466 13.2206 58.3539H11.8183C11.7283 58.4789 11.4461 58.9121 10.6664 58.9121C9.80742 58.9121 9.30999 58.2397 9.26589 57.3298H13.2541V57.0905C13.2541 55.2688 12.1922 54.0743 10.5536 54.0743ZM10.5536 55.1891C11.2309 55.1891 11.6613 55.6114 11.7971 56.3727H9.28882C9.4123 55.644 9.83035 55.1891 10.5553 55.1891H10.5536ZM14.4836 59.9816H15.93V51.6038H14.4836V59.9816ZM17.4981 53.3004H19.001V51.5693H17.4981V53.3004ZM17.5211 59.9816H18.9675V54.223H17.5211V59.9816ZM24.254 59.9816H25.6774V54.223H24.2416V55.0531C24.1181 54.8139 23.6877 54.0961 22.6258 54.0961C21.257 54.0961 20.2304 55.2235 20.2304 57.1014C20.2304 58.9792 21.2588 60.1066 22.6258 60.1066C23.6648 60.1066 24.1393 59.3997 24.2522 59.1387V59.9816H24.254ZM24.2663 57.1014C24.2663 58.1364 23.8024 58.8433 22.9892 58.8433C22.1637 58.8433 21.7016 58.1382 21.7016 57.1014C21.7016 56.0881 22.1655 55.3703 22.9892 55.3703C23.8024 55.3703 24.2663 56.0881 24.2663 57.1014ZM28.6708 59.1278C28.7943 59.3435 29.2811 60.1066 30.3995 60.1066C31.7559 60.1066 32.8178 59.0136 32.8178 57.1014C32.8178 55.1891 31.7559 54.0852 30.3995 54.0852C29.2811 54.0852 28.8066 54.8701 28.6814 55.1093V51.6038H27.2579V59.9816H28.6708V59.1278ZM28.6602 57.1014C28.6602 56.0664 29.1577 55.3595 30.0043 55.3595C30.8299 55.3595 31.3485 56.0664 31.3485 57.1014C31.3485 58.1146 30.8281 58.8433 30.0043 58.8433C29.1559 58.8433 28.6602 58.1146 28.6602 57.1014ZM34.1055 59.9816H35.5519V51.6038H34.1055V59.9816ZM39.5278 54.0743C37.8661 54.0743 36.8043 55.316 36.8043 57.1032C36.8043 58.8451 37.8891 60.1302 39.6407 60.1302C41.4822 60.1302 42.1031 58.9466 42.1948 58.3539H40.7943C40.7043 58.4789 40.4203 58.9121 39.6424 58.9121C38.7834 58.9121 38.286 58.2397 38.2419 57.3298H42.2319V57.0905C42.2319 55.2688 41.17 54.0743 39.5313 54.0743H39.5278ZM39.5278 55.1891C40.2051 55.1891 40.6355 55.6114 40.7713 56.3727H38.263C38.3865 55.644 38.8046 55.1891 39.5295 55.1891H39.5278ZM50.0566 59.9816H51.4801V54.223H50.0443V55.0531C49.9208 54.8139 49.4904 54.0961 48.4285 54.0961C47.0615 54.0961 46.0331 55.2235 46.0331 57.1014C46.0331 58.9792 47.0615 60.1066 48.4285 60.1066C49.4675 60.1066 49.942 59.3997 50.0566 59.1387V59.9816ZM50.069 57.1014C50.069 58.1364 49.6051 58.8433 48.7919 58.8433C47.9664 58.8433 47.5042 58.1382 47.5042 57.1014C47.5042 56.0881 47.9681 55.3703 48.7919 55.3703C49.6051 55.3703 50.069 56.0881 50.069 57.1014ZM54.4964 56.7606C54.4964 55.896 54.9374 55.3957 55.7047 55.3957C56.4279 55.3957 56.8795 55.8616 56.8795 56.7606V59.9816H58.3259V56.4996C58.3259 55.0078 57.4775 54.0979 56.1669 54.0979C55.2514 54.0979 54.7081 54.6562 54.4947 55.055V54.2248H53.0588V59.9834H54.4947V56.7624L54.4964 56.7606ZM63.6935 59.9816H65.117V51.6038H63.6812V55.0404C63.5577 54.8121 63.0938 54.0834 61.9966 54.0834C60.6296 54.0834 59.5448 55.1981 59.5448 57.0996C59.5448 58.9774 60.6296 60.1048 61.9966 60.1048C63.0814 60.1048 63.5789 59.3762 63.6918 59.1152V59.9798L63.6935 59.9816ZM63.7041 57.1014C63.7041 58.1037 63.1837 58.8433 62.3476 58.8433C61.501 58.8433 61.0141 58.1037 61.0141 57.1014C61.0141 56.099 61.501 55.3595 62.3476 55.3595C63.1837 55.3595 63.7041 56.099 63.7041 57.1014ZM74.7763 54.2212H73.2946L71.8817 58.1019L70.4582 54.2212H68.8548L71.1602 60.0486H72.5731L74.778 54.2212H74.7763ZM79.3166 59.9798H80.7401V54.2212H79.3042V55.0513C79.1808 54.8121 78.7504 54.0943 77.6885 54.0943C76.3197 54.0943 75.2931 55.2217 75.2931 57.0996C75.2931 58.9774 76.3214 60.1048 77.6885 60.1048C78.7274 60.1048 79.2019 59.3979 79.3166 59.1369V59.9798ZM79.3272 57.0996C79.3272 58.1345 78.8633 58.8415 78.0501 58.8415C77.2246 58.8415 76.7607 58.1364 76.7607 57.0996C76.7607 56.0863 77.2246 55.3685 78.0501 55.3685C78.8633 55.3685 79.3272 56.0863 79.3272 57.0996ZM82.3417 59.9798H83.7881V51.602H82.3417V59.9798ZM87.9439 60.1048C89.6391 60.1048 90.521 59.0118 90.521 57.5998V54.2193H89.0975V57.5201C89.0975 58.2487 88.6901 58.749 87.9334 58.749C87.1643 58.749 86.7815 58.2487 86.7815 57.5201V54.2193H85.3351V57.5998C85.3351 59.0916 86.2047 60.1048 87.9457 60.1048H87.9439ZM95.7617 59.9798H97.1851V54.2212H95.7493V55.0513C95.6258 54.8121 95.1954 54.0943 94.1335 54.0943C92.7647 54.0943 91.7381 55.2217 91.7381 57.0996C91.7381 58.9774 92.7665 60.1048 94.1335 60.1048C95.1725 60.1048 95.647 59.3979 95.7617 59.1369V59.9798ZM95.7722 57.0996C95.7722 58.1345 95.3083 58.8415 94.4952 58.8415C93.6696 58.8415 93.2057 58.1364 93.2057 57.0996C93.2057 56.0863 93.6696 55.3685 94.4952 55.3685C95.3083 55.3685 95.7722 56.0863 95.7722 57.0996ZM100.177 59.126C100.302 59.3417 100.787 60.1048 101.905 60.1048C103.262 60.1048 104.324 59.0118 104.324 57.0996C104.324 55.1873 103.262 54.0834 101.905 54.0834C100.787 54.0834 100.313 54.8683 100.189 55.1075V51.602H98.7638V59.9798H100.177V59.126ZM100.166 57.0996C100.166 56.0646 100.664 55.3577 101.51 55.3577C102.336 55.3577 102.854 56.0646 102.854 57.0996C102.854 58.1128 102.336 58.8415 101.51 58.8415C100.662 58.8415 100.166 58.1128 100.166 57.0996ZM105.611 59.9798H107.058V51.602H105.611V59.9798ZM111.034 54.0725C109.372 54.0725 108.31 55.3141 108.31 57.1014C108.31 58.8433 109.395 60.1284 111.147 60.1284C112.988 60.1284 113.609 58.9448 113.701 58.3521H112.298C112.208 58.4771 111.926 58.9103 111.147 58.9103C110.288 58.9103 109.79 58.2379 109.746 57.3279H113.736V57.0887C113.736 55.267 112.674 54.0725 111.035 54.0725H111.034ZM111.034 55.1873C111.711 55.1873 112.141 55.6096 112.277 56.3709H109.769C109.894 55.6422 110.31 55.1873 111.035 55.1873H111.034Z" fill="white"/>
<path fill-rule="evenodd" clip-rule="evenodd" d="M27.5059 36.5543V26.5633C27.5059 21.082 23.1172 16.5704 17.7831 16.5704C12.449 16.5704 8.06393 21.082 8.06393 26.5633C8.06393 32.0445 12.4473 36.5543 17.7831 36.5543H27.5059ZM71.5405 34.1852C70.3675 31.8306 69.7536 29.226 69.7536 26.5633C69.7536 17.2991 77.1251 9.72065 86.1422 9.72065C96.2231 9.72065 103.967 19.0972 102.31 29.3184L102.201 29.989H77.0175C78.4127 33.8807 82.064 36.5524 86.1422 36.5524H104.318V0.5H110.984V43.4022H86.0611C83.1136 43.4022 80.2596 42.563 77.7583 41.0169C77.5449 40.8755 77.3332 40.7287 77.1251 40.5782C74.4562 42.4053 71.2829 43.4022 68.0708 43.4022H67.9579C58.9496 43.4022 51.5958 35.8093 51.5958 26.5596V16.5994C46.6057 17.0145 42.6598 21.3684 42.6598 26.5596V43.4022H35.9921V26.5596C35.9921 17.5873 42.9208 10.1593 51.5958 9.73697V0.5H58.2652V9.71884H67.0954V16.5686H58.2652V26.5614C58.2652 32.0463 62.6503 36.5524 67.9879 36.5524C69.482 36.5524 70.9884 36.199 72.3342 35.5211C72.0538 35.0879 71.7892 34.642 71.5422 34.1834L71.5405 34.1852ZM95.2688 23.1375C93.8717 19.2422 90.224 16.5686 86.1405 16.5686C82.0588 16.5686 78.411 19.2422 77.0157 23.1375H95.2688ZM34.1718 43.404H17.7514C8.74304 43.404 1.39453 35.8093 1.39453 26.5614C1.39453 17.2955 8.7642 9.71884 17.7814 9.71884C26.7968 9.71884 34.1718 17.2955 34.1718 26.5614V43.404Z" fill="white"/>
</g>
<defs>
<clipPath id="clip0_6317_2761">
<rect width="122" height="61" fill="white" transform="translate(0 0.5)"/>
</clipPath>
</defs>
</svg>
